<?xml version="1.0" standalone="no"?>
<!DOCTYPE svg PUBLIC "-//W3C//DTD SVG 20010904//EN"
 "http://www.w3.org/TR/2001/REC-SVG-20010904/DTD/svg10.dtd">
<svg version="1.0" xmlns="http://www.w3.org/2000/svg"
 width="1080.000000pt" height="1080.000000pt" viewBox="0 0 1080.000000 1080.000000"
 preserveAspectRatio="xMidYMid meet">

<g transform="translate(0.000000,1080.000000) scale(0.100000,-0.100000)"
fill="#5d17eb" stroke="none">
<path d="M4880 9804 c-19 -9 -83 -19 -141 -23 -58 -5 -116 -14 -128 -20 -12
-7 -54 -15 -94 -17 -40 -3 -100 -14 -134 -25 -35 -10 -91 -28 -125 -38 -35
-11 -80 -22 -102 -26 -21 -3 -52 -12 -70 -20 -46 -20 -125 -45 -175 -56 -25
-5 -52 -15 -60 -23 -9 -7 -27 -17 -41 -21 -48 -13 -153 -55 -265 -105 -95 -43
-439 -220 -498 -257 -85 -54 -142 -92 -168 -112 -14 -11 -59 -43 -100 -70
-131 -90 -172 -121 -259 -195 -47 -39 -98 -82 -115 -94 -71 -54 -355 -345
-451 -462 -16 -19 -48 -57 -72 -85 -44 -49 -90 -112 -164 -224 -21 -31 -43
-63 -48 -71 -81 -119 -156 -238 -219 -348 -40 -69 -171 -334 -171 -346 0 -3
-15 -38 -33 -78 -19 -40 -46 -107 -62 -148 -15 -41 -33 -91 -41 -110 -41 -105
-64 -175 -64 -192 0 -11 -9 -47 -20 -81 -37 -116 -60 -200 -60 -222 0 -12 -9
-51 -20 -85 -11 -34 -20 -80 -20 -101 0 -21 -9 -62 -19 -91 -13 -37 -21 -93
-25 -188 -4 -74 -13 -157 -21 -184 -20 -65 -20 -321 -1 -516 8 -80 17 -210 21
-290 4 -80 13 -168 21 -197 8 -28 18 -89 23 -135 4 -46 13 -93 19 -104 6 -11
15 -55 21 -97 6 -43 16 -87 21 -98 6 -10 15 -44 21 -74 5 -30 16 -67 24 -82 8
-16 15 -39 15 -53 0 -27 32 -129 60 -195 10 -22 21 -56 25 -75 4 -19 14 -44
21 -55 8 -11 14 -26 14 -35 0 -8 8 -31 19 -50 10 -19 21 -46 26 -60 8 -29 42
-109 56 -130 5 -8 12 -22 15 -30 21 -51 67 -141 74 -145 5 -3 11 -19 15 -36 4
-17 24 -56 44 -87 20 -31 42 -68 49 -82 7 -14 21 -38 32 -55 11 -16 27 -44 35
-62 21 -45 108 -171 146 -211 9 -9 23 -30 32 -47 8 -16 32 -47 51 -68 l36 -37
28 28 c15 16 73 82 129 148 55 65 127 146 158 179 32 33 83 92 115 130 32 39
72 86 90 105 17 19 55 62 83 94 29 33 59 67 67 75 8 9 40 46 70 81 70 83 210
240 231 260 9 8 40 44 69 79 28 35 57 70 63 77 7 7 39 43 72 80 33 37 78 88
101 113 22 26 60 71 85 101 24 30 67 80 95 110 40 43 200 225 290 330 7 8 21
24 31 35 10 11 43 49 73 85 30 35 62 71 70 80 8 9 49 54 90 100 41 46 94 104
117 129 24 26 43 50 43 54 0 4 21 30 48 57 26 27 63 68 82 92 19 23 60 69 91
102 31 34 80 90 110 126 29 36 74 88 100 115 26 28 72 81 103 119 48 59 165
191 217 246 9 10 51 60 94 111 43 52 94 110 114 130 38 38 128 140 148 169 7
10 9 20 6 24 -12 12 -56 6 -73 -9 -10 -9 -40 -19 -67 -24 -27 -4 -60 -15 -74
-24 -13 -9 -35 -17 -49 -17 -14 0 -38 -9 -55 -20 -16 -11 -42 -20 -58 -20 -15
0 -44 -9 -64 -20 -21 -11 -47 -20 -58 -20 -11 0 -36 -8 -55 -19 -19 -10 -56
-21 -82 -25 -25 -4 -51 -13 -57 -20 -6 -8 -30 -16 -52 -20 -22 -4 -50 -13 -62
-20 -12 -7 -38 -16 -57 -20 -19 -3 -48 -12 -65 -20 -40 -18 -119 -45 -175 -60
-25 -6 -54 -16 -65 -23 -11 -6 -37 -14 -58 -18 -20 -4 -54 -16 -74 -26 -21
-11 -48 -19 -61 -19 -13 0 -40 -8 -60 -19 -46 -23 -123 -50 -180 -62 -24 -5
-53 -15 -65 -24 -12 -8 -32 -15 -44 -15 -13 0 -40 -9 -60 -20 -21 -11 -49 -20
-63 -20 -14 0 -42 -9 -63 -20 -20 -11 -46 -20 -57 -20 -11 0 -37 -9 -57 -20
-21 -11 -49 -20 -63 -20 -14 0 -42 -9 -63 -20 -20 -11 -45 -20 -55 -20 -9 0
-34 -9 -55 -20 -20 -11 -47 -20 -60 -20 -12 0 -39 -8 -60 -19 -20 -10 -53 -22
-73 -26 -20 -3 -47 -13 -60 -21 -12 -9 -35 -14 -51 -12 -36 4 -43 40 -15 77
10 15 23 38 27 51 4 14 16 33 26 43 11 10 19 26 19 36 0 10 9 28 20 41 11 13
20 29 20 35 0 7 8 23 18 36 11 13 40 65 67 114 26 50 52 95 57 102 5 6 24 40
41 75 18 35 47 85 65 111 17 26 32 53 32 59 0 7 10 28 23 47 34 54 44 72 66
116 11 22 25 47 30 55 6 8 31 53 57 100 59 106 78 128 120 136 18 3 38 12 45
20 6 8 23 14 38 14 14 0 42 8 61 19 19 10 51 22 70 26 19 4 44 13 55 20 11 7
34 16 52 20 17 3 48 15 69 26 21 10 50 19 65 19 15 0 32 6 38 14 7 8 28 17 48
21 20 3 52 15 72 26 20 10 45 19 56 19 11 0 37 9 58 20 20 11 46 20 57 20 11
0 37 9 57 20 21 11 45 20 53 20 8 1 33 9 55 20 22 11 47 20 55 20 8 0 29 7 45
16 17 9 50 22 75 29 59 17 106 33 158 56 23 11 50 19 60 19 10 0 34 9 55 19
20 10 49 22 64 25 16 4 42 13 58 20 37 16 116 44 171 60 23 6 47 16 55 23 8 6
32 14 54 18 22 4 49 13 60 20 11 7 34 15 52 19 17 4 48 16 69 27 21 10 51 19
66 19 15 0 30 4 33 10 3 5 27 16 53 24 26 8 61 21 77 30 17 9 39 16 50 16 11
0 37 9 58 20 20 11 46 20 57 20 11 0 34 9 52 20 18 11 42 20 53 20 11 0 37 9
58 20 20 11 45 20 55 20 9 0 33 8 52 19 19 10 53 21 75 25 22 4 47 13 55 21 8
7 33 16 54 19 21 4 48 13 60 21 12 7 37 16 56 20 19 4 44 13 55 20 11 7 34 16
52 20 17 3 48 15 69 26 21 10 48 19 59 19 11 0 29 6 40 14 11 7 36 17 55 21
19 4 51 16 70 26 19 11 45 19 57 19 13 0 40 9 60 20 21 11 46 20 55 20 10 0
32 9 50 20 18 11 42 20 53 20 11 1 38 9 60 20 22 11 47 19 55 20 8 0 31 8 50
19 19 10 53 21 74 25 22 4 49 14 60 22 11 8 29 14 40 14 10 0 37 8 60 19 57
26 145 59 181 67 17 4 39 13 50 20 11 7 38 16 60 20 22 3 47 12 55 19 8 7 31
16 50 20 19 4 46 13 60 20 14 8 45 20 70 28 72 24 112 39 156 58 23 11 51 19
63 19 11 0 38 9 58 20 21 11 44 20 51 20 7 0 30 9 52 20 22 11 50 20 62 20 13
0 37 9 53 20 17 11 39 20 50 20 11 0 34 7 50 16 17 9 50 22 75 29 66 20 141
45 175 60 17 7 64 25 105 41 41 15 93 35 116 45 22 11 49 19 60 19 11 0 37 9
59 20 22 11 48 20 58 20 10 0 35 9 55 19 41 21 83 36 152 56 25 7 59 20 75 29
17 9 40 16 53 16 13 0 40 9 60 19 36 18 60 28 152 58 25 9 63 24 86 34 22 11
47 19 55 19 8 0 24 6 34 14 11 8 41 18 65 23 l45 10 -47 8 c-53 8 -184 1 -268
-15 -30 -6 -163 -15 -295 -19 -145 -5 -252 -13 -270 -21 -17 -7 -120 -16 -235
-21 -113 -5 -239 -16 -280 -24 -49 -10 -144 -16 -275 -18 l-200 -2 -50 33
c-27 17 -70 44 -94 60 -24 15 -65 43 -90 63 -49 38 -51 39 -188 110 -256 132
-352 179 -370 179 -6 0 -21 9 -35 19 -13 11 -41 22 -61 26 -20 4 -41 13 -47
20 -6 8 -26 17 -43 20 -18 4 -42 13 -54 21 -12 7 -39 18 -60 23 -21 6 -84 26
-141 46 -57 19 -115 35 -130 35 -15 0 -47 9 -71 20 -24 11 -56 20 -72 20 -16
0 -46 7 -67 16 -20 9 -81 20 -134 24 -53 5 -107 14 -120 21 -13 7 -70 16 -128
20 -58 4 -123 14 -144 23 -56 24 -952 23 -1006 0z"/>
<path d="M8879 7957 c-37 -40 -91 -101 -120 -137 -30 -35 -61 -72 -69 -80 -30
-32 -136 -147 -170 -185 -19 -21 -42 -49 -50 -61 -18 -26 -110 -132 -160 -183
-19 -20 -68 -76 -109 -126 -42 -49 -80 -95 -86 -101 -79 -84 -251 -278 -300
-338 -22 -27 -56 -65 -75 -85 -20 -20 -71 -79 -114 -131 -43 -52 -108 -126
-145 -165 -36 -38 -82 -88 -101 -111 -126 -151 -192 -226 -242 -277 -31 -33
-92 -102 -135 -154 -43 -53 -107 -125 -142 -162 -35 -36 -102 -113 -150 -171
-47 -57 -102 -120 -121 -139 -32 -32 -117 -129 -229 -260 -25 -30 -57 -66 -71
-81 -80 -87 -103 -113 -166 -190 -38 -47 -87 -103 -109 -126 -49 -50 -136
-149 -201 -229 -27 -33 -73 -85 -102 -115 l-52 -55 34 -3 c19 -2 48 3 63 12
16 8 47 17 68 21 22 4 47 13 55 20 8 7 33 16 55 19 22 4 49 14 61 21 12 7 39
17 60 20 21 4 48 13 60 20 12 8 39 17 60 20 21 4 48 13 60 20 12 8 39 17 60
21 21 4 52 15 69 26 16 10 41 18 55 18 14 1 43 9 65 20 22 11 48 19 58 20 9 0
34 9 54 20 21 11 48 20 61 20 12 0 40 9 62 20 22 11 49 20 60 20 11 0 38 9 60
20 22 11 51 20 66 20 15 0 41 9 58 19 17 10 50 22 73 26 24 4 45 11 48 16 3 4
25 13 48 19 23 6 56 18 74 26 17 8 46 17 65 20 18 4 38 11 45 16 7 5 36 16 65
23 29 7 85 25 123 40 39 14 88 31 110 37 22 6 58 19 81 29 22 11 51 19 65 19
13 0 33 7 43 15 11 8 41 18 68 21 26 4 53 13 59 20 6 7 27 17 47 20 20 4 55
15 77 25 22 10 51 19 64 19 13 0 39 9 57 21 42 26 78 22 82 -9 2 -12 -12 -48
-30 -80 -50 -86 -63 -111 -99 -182 -18 -36 -38 -72 -45 -80 -6 -8 -25 -40 -41
-70 -16 -30 -39 -71 -51 -90 -13 -19 -35 -59 -50 -89 -28 -56 -38 -73 -103
-186 -22 -38 -49 -88 -59 -110 -11 -22 -31 -58 -44 -80 -14 -22 -32 -56 -41
-75 -9 -19 -19 -37 -24 -40 -4 -3 -21 -30 -39 -61 -28 -50 -37 -58 -97 -82
-36 -15 -75 -27 -88 -27 -12 0 -35 -9 -52 -20 -16 -11 -39 -20 -50 -20 -11 0
-37 -9 -58 -20 -20 -11 -45 -20 -55 -20 -9 0 -34 -9 -55 -20 -20 -11 -45 -20
-55 -20 -9 0 -34 -9 -55 -20 -20 -11 -50 -20 -65 -20 -16 0 -39 -9 -51 -19
-12 -10 -38 -22 -58 -26 -20 -3 -45 -12 -57 -20 -12 -7 -37 -15 -56 -19 -19
-3 -48 -12 -65 -20 -33 -15 -75 -30 -145 -53 -25 -8 -58 -21 -75 -28 -16 -8
-49 -19 -72 -25 -23 -6 -45 -15 -48 -19 -3 -5 -24 -12 -48 -16 -23 -4 -58 -16
-77 -26 -19 -11 -42 -19 -50 -19 -8 -1 -33 -9 -55 -20 -22 -11 -48 -19 -58
-20 -10 0 -35 -9 -57 -20 -22 -11 -50 -20 -63 -20 -14 0 -30 -7 -37 -15 -7 -8
-28 -17 -49 -21 -20 -4 -49 -13 -65 -21 -15 -8 -47 -21 -70 -28 -22 -7 -72
-25 -111 -40 -38 -14 -87 -31 -108 -36 -21 -5 -48 -16 -60 -23 -12 -8 -38 -17
-58 -20 -19 -3 -53 -15 -74 -26 -22 -11 -45 -20 -52 -20 -8 0 -24 -6 -36 -14
-12 -8 -41 -17 -64 -21 -24 -4 -45 -11 -48 -16 -4 -5 -32 -16 -63 -25 -31 -9
-61 -20 -67 -24 -5 -4 -23 -10 -40 -14 -35 -8 -123 -41 -181 -67 -23 -11 -51
-19 -62 -19 -12 0 -36 -9 -54 -20 -18 -11 -42 -20 -53 -20 -11 0 -37 -9 -58
-20 -20 -11 -45 -20 -55 -20 -9 0 -34 -9 -55 -20 -20 -11 -47 -20 -59 -20 -13
0 -36 -9 -53 -20 -16 -11 -41 -20 -55 -20 -14 0 -42 -9 -63 -20 -20 -11 -43
-20 -50 -20 -7 0 -29 -8 -49 -19 -20 -10 -52 -21 -70 -25 -18 -3 -46 -12 -63
-20 -51 -24 -165 -66 -178 -66 -13 0 -101 -33 -163 -61 -23 -11 -49 -19 -58
-19 -9 0 -34 -9 -56 -20 -22 -11 -46 -20 -55 -20 -9 0 -33 -9 -55 -20 -22 -11
-50 -20 -62 -20 -13 0 -36 -9 -53 -20 -16 -11 -38 -20 -48 -20 -10 0 -35 -9
-55 -19 -20 -11 -55 -24 -77 -29 -53 -14 -124 -39 -155 -56 -14 -8 -41 -17
-60 -21 -19 -4 -44 -13 -55 -20 -11 -7 -36 -16 -55 -20 -19 -4 -44 -13 -55
-20 -11 -7 -38 -16 -60 -20 -22 -4 -47 -13 -55 -20 -8 -8 -33 -18 -55 -24 -22
-5 -58 -16 -80 -25 -22 -8 -48 -15 -57 -16 -10 0 -32 -9 -50 -20 -18 -11 -40
-20 -48 -20 -9 0 -33 -9 -55 -20 -22 -11 -51 -20 -66 -20 -15 0 -32 -7 -39
-15 -7 -8 -28 -17 -49 -21 -20 -4 -50 -15 -67 -25 -17 -11 -42 -19 -55 -19
-13 -1 -42 -9 -64 -20 -22 -11 -46 -19 -53 -20 -7 0 -30 -9 -52 -20 -22 -11
-52 -20 -68 -20 -16 0 -37 -9 -47 -20 -10 -11 -30 -20 -44 -20 -15 0 -43 -9
-64 -20 -20 -11 -47 -20 -60 -20 -12 0 -39 -9 -60 -20 -20 -11 -45 -20 -55
-20 -9 0 -33 -8 -52 -18 -19 -11 -48 -22 -65 -26 -34 -8 -119 -40 -181 -68
-22 -10 -52 -18 -66 -18 -14 0 -31 -7 -38 -15 -7 -8 -30 -18 -51 -21 -82 -13
-33 -24 109 -24 103 0 166 5 207 16 41 11 136 18 295 24 129 5 253 13 275 19
48 12 169 20 400 26 94 2 186 9 205 15 45 14 246 25 293 16 21 -4 93 -44 169
-95 73 -48 181 -114 240 -145 59 -31 134 -72 165 -91 32 -19 64 -35 71 -35 7
0 30 -9 50 -20 20 -11 69 -34 107 -51 39 -17 94 -43 124 -56 29 -14 68 -29 85
-33 34 -9 126 -45 168 -66 14 -8 37 -14 50 -14 12 -1 41 -8 63 -16 22 -9 65
-21 96 -28 31 -7 62 -17 69 -21 14 -9 161 -42 245 -55 28 -4 71 -14 95 -23 25
-8 86 -17 136 -21 51 -4 127 -13 169 -21 110 -21 948 -22 1028 -1 30 8 101 17
158 21 57 3 131 12 164 20 33 8 114 26 180 40 66 15 138 33 160 40 22 8 58 17
80 21 22 4 51 12 65 19 25 13 83 34 170 60 170 52 575 238 730 335 25 16 66
40 91 54 26 13 62 35 81 48 19 13 61 39 92 58 31 19 104 71 160 115 57 44 118
91 136 105 35 26 147 117 166 135 51 47 179 161 199 177 13 10 59 58 101 106
43 48 111 124 153 169 42 45 95 106 117 136 99 126 201 264 206 278 4 8 40 66
81 129 113 174 116 179 123 206 4 14 12 28 19 31 7 2 16 16 20 30 3 15 15 38
26 51 10 14 19 32 20 41 0 9 14 39 30 66 16 28 34 61 40 75 7 14 26 57 44 95
18 39 48 108 66 155 18 47 39 94 46 105 7 11 13 31 13 45 0 14 9 43 20 65 11
21 23 55 26 74 4 20 12 47 19 61 7 14 16 48 19 75 4 28 14 59 21 71 7 11 16
43 20 70 4 27 15 75 26 107 10 31 19 77 19 101 0 24 7 66 14 92 8 27 20 95 25
152 6 57 17 113 24 125 9 17 12 134 12 487 0 409 -2 470 -17 505 -9 24 -19 88
-23 155 -4 63 -12 126 -17 140 -6 14 -16 63 -23 110 -13 84 -27 142 -64 270
-10 36 -24 85 -30 110 -26 101 -65 215 -98 287 -12 28 -23 56 -23 62 0 6 -6
25 -14 43 -7 18 -24 60 -36 93 -31 85 -203 427 -268 535 -12 19 -32 52 -44 74
-94 160 -244 366 -267 366 -9 -1 -46 -33 -82 -73z"/>
</g>
</svg>
